<?xml version="1.0" standalone="no"?>
<!DOCTYPE svg PUBLIC "-//W3C//DTD SVG 20010904//EN"
 "http://www.w3.org/TR/2001/REC-SVG-20010904/DTD/svg10.dtd">
<svg version="1.0" xmlns="http://www.w3.org/2000/svg"
 width="195.000000pt" height="123.000000pt" viewBox="0 0 195.000000 123.000000"
 preserveAspectRatio="xMidYMid meet">

<g transform="translate(0.000000,123.000000) scale(0.100000,-0.100000)"
fill="#000000" stroke="none">
<path d="M1220 1171 c-16 -30 -12 -94 8 -117 39 -49 106 -58 144 -21 13 12 19
19 14 15 -18 -14 -76 -8 -103 9 -32 21 -53 69 -46 106 6 31 -2 35 -17 8z"/>
<path d="M1276 1151 c-10 -11 -16 -28 -13 -38 4 -15 5 -15 6 3 1 24 16 39 46
47 19 4 19 5 -1 6 -11 0 -29 -8 -38 -18z"/>
<path d="M721 856 c-17 -29 -31 -56 -31 -60 0 -17 40 -2 66 25 23 25 35 30 60
26 39 -7 90 -58 103 -103 9 -33 7 -38 -25 -73 -58 -65 -38 -81 40 -33 l44 27
4 75 3 75 -40 0 c-30 0 -39 4 -37 15 2 8 0 12 -4 8 -13 -13 -34 14 -34 43 0
29 -1 29 -59 29 l-60 0 -30 -54z"/>
<path d="M991 864 c0 -11 3 -14 6 -6 3 7 2 16 -1 19 -3 4 -6 -2 -5 -13z"/>
<path d="M1678 843 c12 -2 30 -2 40 0 9 3 -1 5 -23 4 -22 0 -30 -2 -17 -4z"/>
<path d="M1587 796 c-23 -34 -30 -71 -23 -111 18 -96 138 -144 215 -86 22 17
22 17 -37 13 -55 -4 -61 -2 -95 28 -46 40 -66 98 -49 143 15 39 10 45 -11 13z"/>
<path d="M732 760 c-48 -45 -14 -130 50 -130 36 0 78 40 78 75 0 35 -42 75
-78 75 -15 0 -38 -9 -50 -20z"/>
<path d="M1659 753 c-13 -16 -12 -17 4 -4 16 13 21 21 13 21 -2 0 -10 -8 -17
-17z"/>
<path d="M1720 766 c0 -2 8 -10 18 -17 15 -13 16 -12 3 4 -13 16 -21 21 -21
13z"/>
<path d="M180 725 c-60 -19 -123 -74 -152 -133 -22 -44 -23 -60 -26 -272 -3
-218 -3 -226 18 -253 27 -34 80 -37 110 -7 19 19 20 33 20 235 0 173 3 222 15
245 19 37 43 50 90 50 86 0 105 -37 105 -203 0 -80 5 -141 15 -173 57 -190
310 -235 432 -76 45 59 53 97 53 253 0 129 -1 137 -23 157 -30 29 -62 28 -92
-3 -24 -23 -25 -29 -25 -161 l0 -136 -34 -34 c-40 -40 -83 -45 -133 -14 -40
24 -41 30 -46 205 -4 152 -17 195 -76 258 -59 65 -164 90 -251 62z"/>
<path d="M1642 710 c0 -14 2 -19 5 -12 2 6 2 18 0 25 -3 6 -5 1 -5 -13z"/>
<path d="M1748 707 c-3 -19 -2 -25 4 -19 6 6 8 18 6 28 -3 14 -5 12 -10 -9z"/>
<path d="M1470 131 c-5 -11 -10 -42 -10 -70 l0 -51 241 0 c223 0 240 1 237 17
-3 16 -22 18 -218 18 l-215 0 -3 53 c-3 54 -14 66 -32 33z"/>
<path d="M1548 143 c7 -3 16 -2 19 1 4 3 -2 6 -13 5 -11 0 -14 -3 -6 -6z"/>
<path d="M1598 143 c7 -3 16 -2 19 1 4 3 -2 6 -13 5 -11 0 -14 -3 -6 -6z"/>
<path d="M1648 143 c7 -3 16 -2 19 1 4 3 -2 6 -13 5 -11 0 -14 -3 -6 -6z"/>
<path d="M1708 143 c7 -3 16 -2 19 1 4 3 -2 6 -13 5 -11 0 -14 -3 -6 -6z"/>
<path d="M1758 143 c7 -3 16 -2 19 1 4 3 -2 6 -13 5 -11 0 -14 -3 -6 -6z"/>
<path d="M1808 143 c7 -3 16 -2 19 1 4 3 -2 6 -13 5 -11 0 -14 -3 -6 -6z"/>
</g>
</svg>
